<svg
  width="120"
  height="120"
  viewBox="0 0 520 520"
  fill="none"
  xmlns="http://www.w3.org/2000/svg"
  className="mx-auto mb-6 drop-shadow-[0_0_10px_rgba(139,0,0,0.3)]"
>
  <path fillRule="evenodd" clipRule="evenodd" d="M271.867 46.3915C267.367 48.3515 262.507 49.3915 257.897 51.1015C248.607 54.5615 239.647 59.7915 232.257 66.4215C224.917 73.0015 218.737 80.4415 213.847 89.0115C211.717 92.7415 209.717 99.7915 207.467 102.662C205.077 105.702 199.387 107.672 195.927 109.122C181.667 115.112 162.867 115.232 150.767 104.392C153.637 96.5315 158.567 89.3615 163.587 82.7315C187.917 50.5515 232.227 26.7315 271.867 46.3915ZM402.697 77.3915C397.507 77.8315 392.057 76.1015 386.727 75.9015C375.827 75.5115 365.407 76.9715 355.027 80.2815C344.667 83.5915 334.677 89.5615 326.337 96.4715C322.747 99.4415 316.757 106.832 313.497 108.692C310.477 110.412 306.177 110.692 302.817 111.202C287.577 113.512 271.647 107.592 261.217 96.3915C258.987 93.9915 256.697 91.5115 255.687 88.3915C288.647 58.6515 340.777 37.0015 382.737 60.8715C390.387 65.2215 396.767 70.9515 402.697 77.3915ZM135.207 91.3915C122.327 105.092 114.597 123.882 112.507 142.432C111.777 148.842 113.637 157.622 112.427 163.352C111.757 166.582 108.347 170.042 106.347 172.552C97.3174 183.872 83.2774 190.582 68.7274 189.602C67.4674 182.892 68.9874 175.082 69.9974 168.362C73.7174 143.422 85.6574 117.762 106.527 102.702C113.027 98.0115 127.447 89.5615 135.207 91.3915ZM353.727 166.712C361.257 167.462 368.927 170.842 375.947 173.632C388.267 178.552 400.467 185.192 409.567 195.052C429.787 216.952 436.727 250.252 422.727 277.192C419.737 273.452 418.727 267.562 416.567 263.082C412.437 254.532 406.787 247.132 399.187 241.422C391.887 235.932 383.487 232.482 374.417 231.362C370.217 230.852 364.897 232.162 361.047 230.562C357.237 228.992 353.607 224.692 351.097 221.572C338.177 205.532 339.857 181.612 353.727 166.712ZM434.727 294.462C439.437 298.662 442.877 304.442 445.487 310.162C456.897 335.162 452.067 364.052 439.487 387.622C435.837 394.472 431.457 402.752 425.727 408.002C407.247 406.672 392.317 392.852 389.837 374.562C389.147 369.532 389.107 362.362 391.667 357.742C392.987 355.352 397.037 354.672 399.377 353.502C404.507 350.942 409.437 347.732 413.687 343.862C430.007 328.952 431.857 315.092 434.727 294.462Z" fill="#76111D" />
  <path d="M343.477 372.832C340.567 371.112 338.157 368.662 335.307 366.782C326.097 360.692 314.447 358.342 303.567 359.952C271.737 364.662 253.577 403.672 272.597 430.492C275.327 434.352 278.527 437.962 282.237 440.882C301.407 456.002 319.127 450.302 339.677 442.902C348.717 439.652 357.677 436.182 366.717 432.932C376.037 429.582 385.347 426.222 394.677 422.892C400.437 420.842 406.697 419.072 412.057 416.142C408.647 414.142 404.947 412.712 401.587 410.572C390.487 403.462 381.817 392.072 379.307 378.962C378.157 372.932 379.767 366.492 378.477 360.772C366.807 364.792 355.147 368.812 343.477 372.832Z" fill="white" />
  <path d="M337.477 169.662C319.907 183.672 302.537 198.042 285.377 212.572C276.447 220.132 265.517 227.202 258.527 236.722C251.287 246.582 250.207 260.632 255.547 271.552C263.427 287.652 283.287 293.692 299.327 286.472C307.397 282.852 312.797 276.172 319.137 270.282L319.741 269.722C330.776 259.483 341.986 249.082 352.317 238.142C349.407 234.132 345.107 231.092 342.027 227.072C334.497 217.252 330.297 204.592 331.347 192.202C331.677 188.302 332.307 184.362 333.477 180.622C334.597 177.012 337.307 173.202 337.477 169.662Z" fill="white" />
  <path d="M248.477 98.0415C236.797 125.492 225.627 153.172 214.767 180.962C210.467 191.962 201.897 207.732 200.897 219.142C199.417 236.122 212.027 251.332 229.477 251.442C233.917 251.472 238.647 250.672 242.277 248.142C244.597 240.012 247.757 232.112 253.757 225.912C257.987 221.542 267.887 215.482 270.557 210.782C274.967 203.032 277.867 192.652 281.137 184.252C289.177 163.592 296.377 142.212 305.787 122.142C302.407 121.432 298.987 122.142 295.477 122.052C288.767 121.882 282.087 120.542 275.767 118.282C268.367 115.642 261.257 110.962 255.557 105.572C253.047 103.192 251.227 100.082 248.477 98.0415Z" fill="white" />
  <path d="M146.477 115.382C144.597 130.152 144.807 145.272 143.677 160.112C142.837 171.042 142.497 182.032 141.547 192.952C140.957 199.722 139.607 209.492 140.187 216.102C140.437 218.892 141.857 221.702 142.697 224.352C144.787 230.952 146.797 237.592 148.897 244.182C150.807 250.152 151.617 257.382 154.477 262.832C170.247 259.702 184.187 247.602 188.767 232.012C190.567 225.892 189.857 219.512 191.237 213.292C193.067 205.002 198.517 197.412 199.847 189.112C200.937 182.292 200.757 175.032 201.177 168.142C202.227 151.112 202.967 133.982 204.477 116.992C201.267 117.582 198.357 119.252 195.187 120.292C190.157 121.952 184.777 123.182 179.477 123.492C171.127 123.972 162.437 122.682 154.737 119.362C151.897 118.142 149.367 116.412 146.477 115.382Z" fill="white" />
  <path d="M115.527 177.142C107.797 186.012 99.6974 193.592 88.2374 197.342C82.5774 199.192 75.5774 198.642 70.4774 200.942C84.1474 238.262 97.8074 275.582 111.477 312.902C130.467 309.792 143.377 288.122 143.767 270.142C143.947 261.922 140.497 253.742 138.237 245.962C134.527 233.202 130.337 220.622 126.187 208.002C123.587 200.102 119.567 183.352 115.527 177.142Z" fill="white" />
  <path d="M195.477 243.722C184.367 261.692 174.607 268.162 154.517 274.142C151.377 289.762 145.827 303.852 132.827 314.022C127.357 318.302 120.987 320.452 115.267 324.142L145.477 406.672C146.777 401.602 147.187 396.332 148.147 391.182C149.657 383.182 151.697 375.072 154.207 367.322C161.567 344.652 174.217 323.002 189.987 305.162C200.747 292.992 213.057 281.722 226.587 272.702C228.897 271.162 240.607 265.032 241.447 263.652C241.987 262.772 241.747 262.092 241.937 261.142C236.217 260.142 229.657 262.422 223.487 261.532C208.827 259.422 204.947 253.022 195.477 243.722Z" fill="white" />
  <path d="M244.477 274.352C201.547 296.852 170.137 341.202 159.707 388.032C157.477 398.032 156.487 407.942 155.817 418.142C155.507 422.662 154.707 427.682 156.037 432.092C160.627 447.292 176.637 461.392 189.477 469.732C190.047 465.162 187.707 459.942 187.067 455.142C185.597 444.232 185.477 433.152 187.297 422.272C194.067 381.782 224.377 348.222 264.517 338.772C274.007 336.542 283.757 336.172 293.477 336.512C298.107 336.662 302.927 337.992 307.317 337.142C302.147 327.662 300.057 316.912 301.207 306.152C301.527 303.092 302.437 300.172 302.597 297.142C285.707 302.482 268.107 301.062 254.837 288.262C250.497 284.082 247.937 279.152 244.477 274.352Z" fill="white" />
  <path d="M303.277 349.142C292.647 344.062 273.367 347.192 262.347 350.402C217.217 363.552 189.937 410.082 198.227 456.072C199.057 460.692 201.797 473.762 205.397 476.742C209.647 480.272 223.957 481.492 229.477 481.622C252.127 482.182 278.627 475.542 295.947 460.142C292.787 458.542 289.347 457.542 286.137 456.012C276.527 451.472 267.957 443.682 262.607 434.502C241.387 398.102 262.817 356.222 303.277 349.142Z" fill="white" />
</svg>
